<mxfile host="app.diagrams.net" modified="2023-02-08T06:41:41.314Z" agent="5.0 (Macintosh; Intel Mac OS X 10_15_7) AppleWebKit/537.36 (KHTML, like Gecko) Chrome/109.0.0.0 Safari/537.36" etag="DLv-ZDfgY__x9RBxuTZ7" version="20.8.18" type="github">
  <diagram name="Page-1" id="UKF1QDcXyTv3wQiOmEvS">
    <mxGraphModel dx="954" dy="1817" grid="1" gridSize="10" guides="1" tooltips="1" connect="1" arrows="1" fold="1" page="1" pageScale="1" pageWidth="827" pageHeight="1169" math="0" shadow="0">
      <root>
        <mxCell id="0" />
        <mxCell id="1" parent="0" />
        <mxCell id="jwAizNCMD9c3JcKYXGh9-37" value="Product" style="text;html=1;align=center;verticalAlign=middle;resizable=0;points=[];autosize=1;strokeColor=none;fillColor=none;" parent="1" vertex="1">
          <mxGeometry x="194.99" y="260" width="60" height="30" as="geometry" />
        </mxCell>
        <mxCell id="jwAizNCMD9c3JcKYXGh9-9" style="edgeStyle=orthogonalEdgeStyle;rounded=0;orthogonalLoop=1;jettySize=auto;html=1;entryX=0.5;entryY=0.2;entryDx=0;entryDy=0;entryPerimeter=0;" parent="1" source="jwAizNCMD9c3JcKYXGh9-1" target="jwAizNCMD9c3JcKYXGh9-6" edge="1">
          <mxGeometry relative="1" as="geometry" />
        </mxCell>
        <mxCell id="jwAizNCMD9c3JcKYXGh9-10" style="edgeStyle=orthogonalEdgeStyle;rounded=0;orthogonalLoop=1;jettySize=auto;html=1;entryX=0.5;entryY=0.2;entryDx=0;entryDy=0;entryPerimeter=0;" parent="1" source="jwAizNCMD9c3JcKYXGh9-1" target="jwAizNCMD9c3JcKYXGh9-8" edge="1">
          <mxGeometry relative="1" as="geometry" />
        </mxCell>
        <mxCell id="jwAizNCMD9c3JcKYXGh9-11" style="edgeStyle=orthogonalEdgeStyle;rounded=0;orthogonalLoop=1;jettySize=auto;html=1;entryX=0.5;entryY=0.2;entryDx=0;entryDy=0;entryPerimeter=0;" parent="1" source="jwAizNCMD9c3JcKYXGh9-1" target="jwAizNCMD9c3JcKYXGh9-7" edge="1">
          <mxGeometry relative="1" as="geometry" />
        </mxCell>
        <mxCell id="jwAizNCMD9c3JcKYXGh9-1" value="" style="aspect=fixed;html=1;points=[];align=center;image;fontSize=12;image=img/lib/azure2/general/Management_Groups.svg;" parent="1" vertex="1">
          <mxGeometry x="345" y="160" width="41.25" height="40" as="geometry" />
        </mxCell>
        <mxCell id="jwAizNCMD9c3JcKYXGh9-2" value="" style="aspect=fixed;html=1;points=[];align=center;image;fontSize=12;image=img/lib/azure2/general/Management_Groups.svg;" parent="1" vertex="1">
          <mxGeometry x="725" y="130" width="41.25" height="40" as="geometry" />
        </mxCell>
        <mxCell id="jwAizNCMD9c3JcKYXGh9-4" style="edgeStyle=orthogonalEdgeStyle;rounded=0;orthogonalLoop=1;jettySize=auto;html=1;" parent="1" source="jwAizNCMD9c3JcKYXGh9-3" target="jwAizNCMD9c3JcKYXGh9-1" edge="1">
          <mxGeometry relative="1" as="geometry" />
        </mxCell>
        <mxCell id="jwAizNCMD9c3JcKYXGh9-5" style="edgeStyle=orthogonalEdgeStyle;rounded=0;orthogonalLoop=1;jettySize=auto;html=1;" parent="1" source="jwAizNCMD9c3JcKYXGh9-3" target="jwAizNCMD9c3JcKYXGh9-2" edge="1">
          <mxGeometry relative="1" as="geometry" />
        </mxCell>
        <mxCell id="jwAizNCMD9c3JcKYXGh9-3" value="" style="aspect=fixed;html=1;points=[];align=center;image;fontSize=12;image=img/lib/azure2/general/Management_Groups.svg;" parent="1" vertex="1">
          <mxGeometry x="545" y="80" width="41.25" height="40" as="geometry" />
        </mxCell>
        <mxCell id="jwAizNCMD9c3JcKYXGh9-17" style="edgeStyle=orthogonalEdgeStyle;rounded=0;orthogonalLoop=1;jettySize=auto;html=1;" parent="1" source="jwAizNCMD9c3JcKYXGh9-6" target="jwAizNCMD9c3JcKYXGh9-16" edge="1">
          <mxGeometry relative="1" as="geometry" />
        </mxCell>
        <mxCell id="jwAizNCMD9c3JcKYXGh9-18" style="edgeStyle=orthogonalEdgeStyle;rounded=0;orthogonalLoop=1;jettySize=auto;html=1;startArrow=none;" parent="1" source="jwAizNCMD9c3JcKYXGh9-37" target="jwAizNCMD9c3JcKYXGh9-14" edge="1">
          <mxGeometry relative="1" as="geometry" />
        </mxCell>
        <mxCell id="jwAizNCMD9c3JcKYXGh9-19" style="edgeStyle=orthogonalEdgeStyle;rounded=0;orthogonalLoop=1;jettySize=auto;html=1;" parent="1" source="jwAizNCMD9c3JcKYXGh9-6" target="jwAizNCMD9c3JcKYXGh9-15" edge="1">
          <mxGeometry relative="1" as="geometry" />
        </mxCell>
        <mxCell id="jwAizNCMD9c3JcKYXGh9-7" value="" style="verticalLabelPosition=bottom;html=1;verticalAlign=top;align=center;strokeColor=none;fillColor=#00BEF2;shape=mxgraph.azure.azure_subscription;" parent="1" vertex="1">
          <mxGeometry x="338.44" y="230" width="54.37" height="40" as="geometry" />
        </mxCell>
        <mxCell id="jwAizNCMD9c3JcKYXGh9-8" value="" style="verticalLabelPosition=bottom;html=1;verticalAlign=top;align=center;strokeColor=none;fillColor=#00BEF2;shape=mxgraph.azure.azure_subscription;" parent="1" vertex="1">
          <mxGeometry x="465" y="230" width="60" height="40" as="geometry" />
        </mxCell>
        <mxCell id="jwAizNCMD9c3JcKYXGh9-12" value="" style="aspect=fixed;html=1;points=[];align=center;image;fontSize=12;image=img/lib/azure2/management_governance/Policy.svg;" parent="1" vertex="1">
          <mxGeometry x="386.25" y="140" width="28.13" height="30" as="geometry" />
        </mxCell>
        <mxCell id="jwAizNCMD9c3JcKYXGh9-13" value="" style="aspect=fixed;html=1;points=[];align=center;image;fontSize=12;image=img/lib/azure2/management_governance/Policy.svg;" parent="1" vertex="1">
          <mxGeometry x="175" y="210" width="28.13" height="30" as="geometry" />
        </mxCell>
        <mxCell id="jwAizNCMD9c3JcKYXGh9-14" value="" style="aspect=fixed;html=1;points=[];align=center;image;fontSize=12;image=img/lib/azure2/general/Resource_Groups.svg;" parent="1" vertex="1">
          <mxGeometry x="209.05" y="310" width="31.88" height="30" as="geometry" />
        </mxCell>
        <mxCell id="jwAizNCMD9c3JcKYXGh9-15" value="" style="aspect=fixed;html=1;points=[];align=center;image;fontSize=12;image=img/lib/azure2/general/Resource_Groups.svg;" parent="1" vertex="1">
          <mxGeometry x="264.99" y="310" width="31.88" height="30" as="geometry" />
        </mxCell>
        <mxCell id="jwAizNCMD9c3JcKYXGh9-21" style="edgeStyle=orthogonalEdgeStyle;rounded=0;orthogonalLoop=1;jettySize=auto;html=1;" parent="1" source="jwAizNCMD9c3JcKYXGh9-16" target="jwAizNCMD9c3JcKYXGh9-20" edge="1">
          <mxGeometry relative="1" as="geometry" />
        </mxCell>
        <mxCell id="jwAizNCMD9c3JcKYXGh9-16" value="" style="aspect=fixed;html=1;points=[];align=center;image;fontSize=12;image=img/lib/azure2/general/Resource_Groups.svg;" parent="1" vertex="1">
          <mxGeometry x="153.12" y="310" width="31.88" height="30" as="geometry" />
        </mxCell>
        <mxCell id="jwAizNCMD9c3JcKYXGh9-20" value="" style="aspect=fixed;html=1;points=[];align=center;image;fontSize=12;image=img/lib/azure2/compute/Virtual_Machine.svg;" parent="1" vertex="1">
          <mxGeometry x="152.66" y="390" width="32.34" height="30" as="geometry" />
        </mxCell>
        <mxCell id="jwAizNCMD9c3JcKYXGh9-23" value="" style="aspect=fixed;html=1;points=[];align=center;image;fontSize=12;image=img/lib/azure2/general/Tag.svg;" parent="1" vertex="1">
          <mxGeometry x="115" y="390" width="30.54" height="30" as="geometry" />
        </mxCell>
        <mxCell id="jwAizNCMD9c3JcKYXGh9-24" value="" style="aspect=fixed;html=1;points=[];align=center;image;fontSize=12;image=img/lib/azure2/general/Tag.svg;" parent="1" vertex="1">
          <mxGeometry x="115" y="310" width="30.54" height="30" as="geometry" />
        </mxCell>
        <mxCell id="jwAizNCMD9c3JcKYXGh9-25" value="" style="aspect=fixed;html=1;points=[];align=center;image;fontSize=12;image=img/lib/azure2/general/Tag.svg;" parent="1" vertex="1">
          <mxGeometry x="115" y="240" width="30.54" height="30" as="geometry" />
        </mxCell>
        <mxCell id="jwAizNCMD9c3JcKYXGh9-26" value="" style="aspect=fixed;html=1;points=[];align=center;image;fontSize=12;image=img/lib/azure2/general/Tag.svg;" parent="1" vertex="1">
          <mxGeometry x="307.9" y="140" width="30.54" height="30" as="geometry" />
        </mxCell>
        <mxCell id="jwAizNCMD9c3JcKYXGh9-27" value="Tailwind / Tenant / Management Group" style="text;html=1;align=center;verticalAlign=middle;resizable=0;points=[];autosize=1;strokeColor=none;fillColor=none;" parent="1" vertex="1">
          <mxGeometry x="450.63" y="110" width="230" height="30" as="geometry" />
        </mxCell>
        <mxCell id="jwAizNCMD9c3JcKYXGh9-28" value="Governance Policy" style="text;html=1;align=center;verticalAlign=middle;resizable=0;points=[];autosize=1;strokeColor=none;fillColor=none;" parent="1" vertex="1">
          <mxGeometry x="405" y="140" width="120" height="30" as="geometry" />
        </mxCell>
        <mxCell id="jwAizNCMD9c3JcKYXGh9-29" value="Sporting Goods" style="text;html=1;align=center;verticalAlign=middle;resizable=0;points=[];autosize=1;strokeColor=none;fillColor=none;" parent="1" vertex="1">
          <mxGeometry x="690.63" y="160" width="110" height="30" as="geometry" />
        </mxCell>
        <mxCell id="jwAizNCMD9c3JcKYXGh9-30" value="Apparel" style="text;html=1;align=center;verticalAlign=middle;resizable=0;points=[];autosize=1;strokeColor=none;fillColor=none;" parent="1" vertex="1">
          <mxGeometry x="332.81" y="190" width="60" height="30" as="geometry" />
        </mxCell>
        <mxCell id="jwAizNCMD9c3JcKYXGh9-31" value="Tags" style="text;html=1;align=center;verticalAlign=middle;resizable=0;points=[];autosize=1;strokeColor=none;fillColor=none;" parent="1" vertex="1">
          <mxGeometry x="264.99" y="135" width="50" height="30" as="geometry" />
        </mxCell>
        <mxCell id="jwAizNCMD9c3JcKYXGh9-32" value="Tags" style="text;html=1;align=center;verticalAlign=middle;resizable=0;points=[];autosize=1;strokeColor=none;fillColor=none;" parent="1" vertex="1">
          <mxGeometry x="75" y="240" width="50" height="30" as="geometry" />
        </mxCell>
        <mxCell id="jwAizNCMD9c3JcKYXGh9-33" value="Tags" style="text;html=1;align=center;verticalAlign=middle;resizable=0;points=[];autosize=1;strokeColor=none;fillColor=none;" parent="1" vertex="1">
          <mxGeometry x="75" y="310" width="50" height="30" as="geometry" />
        </mxCell>
        <mxCell id="jwAizNCMD9c3JcKYXGh9-34" value="Tags" style="text;html=1;align=center;verticalAlign=middle;resizable=0;points=[];autosize=1;strokeColor=none;fillColor=none;" parent="1" vertex="1">
          <mxGeometry x="75" y="390" width="50" height="30" as="geometry" />
        </mxCell>
        <mxCell id="jwAizNCMD9c3JcKYXGh9-35" value="Resource Group" style="text;html=1;align=center;verticalAlign=middle;resizable=0;points=[];autosize=1;strokeColor=none;fillColor=none;" parent="1" vertex="1">
          <mxGeometry x="295" y="310" width="110" height="30" as="geometry" />
        </mxCell>
        <mxCell id="jwAizNCMD9c3JcKYXGh9-36" value="Resource" style="text;html=1;align=center;verticalAlign=middle;resizable=0;points=[];autosize=1;strokeColor=none;fillColor=none;" parent="1" vertex="1">
          <mxGeometry x="185" y="390" width="70" height="30" as="geometry" />
        </mxCell>
        <mxCell id="jwAizNCMD9c3JcKYXGh9-38" value="Marketing" style="text;html=1;align=center;verticalAlign=middle;resizable=0;points=[];autosize=1;strokeColor=none;fillColor=none;" parent="1" vertex="1">
          <mxGeometry x="325.63" y="260" width="80" height="30" as="geometry" />
        </mxCell>
        <mxCell id="jwAizNCMD9c3JcKYXGh9-39" value="Sales" style="text;html=1;align=center;verticalAlign=middle;resizable=0;points=[];autosize=1;strokeColor=none;fillColor=none;" parent="1" vertex="1">
          <mxGeometry x="470" y="260" width="50" height="30" as="geometry" />
        </mxCell>
        <mxCell id="jwAizNCMD9c3JcKYXGh9-40" value="" style="edgeStyle=orthogonalEdgeStyle;rounded=0;orthogonalLoop=1;jettySize=auto;html=1;endArrow=none;" parent="1" source="jwAizNCMD9c3JcKYXGh9-6" target="jwAizNCMD9c3JcKYXGh9-37" edge="1">
          <mxGeometry relative="1" as="geometry">
            <mxPoint x="225" y="270" as="sourcePoint" />
            <mxPoint x="225" y="310" as="targetPoint" />
          </mxGeometry>
        </mxCell>
        <mxCell id="jwAizNCMD9c3JcKYXGh9-41" value="Governance Policy" style="text;html=1;align=center;verticalAlign=middle;resizable=0;points=[];autosize=1;strokeColor=none;fillColor=none;" parent="1" vertex="1">
          <mxGeometry x="60" y="210" width="120" height="30" as="geometry" />
        </mxCell>
        <mxCell id="jwAizNCMD9c3JcKYXGh9-6" value="" style="verticalLabelPosition=bottom;html=1;verticalAlign=top;align=center;strokeColor=none;fillColor=#00BEF2;shape=mxgraph.azure.azure_subscription;" parent="1" vertex="1">
          <mxGeometry x="195" y="230" width="60" height="40" as="geometry" />
        </mxCell>
        <mxCell id="jwAizNCMD9c3JcKYXGh9-43" value="&lt;b&gt;Case Study - 1 :&amp;nbsp;&lt;font style=&quot;font-size: 14px;&quot;&gt;Design a governance solution&lt;/font&gt;&lt;/b&gt;" style="text;html=1;align=center;verticalAlign=middle;resizable=0;points=[];autosize=1;strokeColor=none;fillColor=none;" parent="1" vertex="1">
          <mxGeometry x="24.999999999999996" y="40" width="320" height="30" as="geometry" />
        </mxCell>
        <mxCell id="iz31OjQWNFHDfnBvgaQi-1" value="&lt;h1 style=&quot;box-sizing: border-box; margin: 24px 0px 16px; font-weight: var(--base-text-weight-semibold, 600); line-height: 1.25; padding-bottom: 0.3em; border-bottom: 1px solid var(--color-border-muted); color: rgb(36, 41, 47); font-family: -apple-system, &amp;quot;system-ui&amp;quot;, &amp;quot;Segoe UI&amp;quot;, &amp;quot;Noto Sans&amp;quot;, Helvetica, Arial, sans-serif, &amp;quot;Apple Color Emoji&amp;quot;, &amp;quot;Segoe UI Emoji&amp;quot;; text-align: start; background-color: rgb(255, 255, 255);&quot; dir=&quot;auto&quot;&gt;&lt;br&gt;&lt;/h1&gt;" style="text;html=1;align=center;verticalAlign=middle;resizable=0;points=[];autosize=1;strokeColor=none;fillColor=none;" vertex="1" parent="1">
          <mxGeometry x="175" y="-20" width="20" height="90" as="geometry" />
        </mxCell>
        <mxCell id="iz31OjQWNFHDfnBvgaQi-4" value="&lt;ol dir=&quot;auto&quot; style=&quot;box-sizing: border-box; padding-left: 2em; margin-top: 0px; margin-bottom: 16px; color: rgb(36, 41, 47); background-color: rgb(255, 255, 255); font-size: 10px;&quot;&gt;&lt;li style=&quot;box-sizing: border-box;&quot;&gt;&lt;p dir=&quot;auto&quot; style=&quot;box-sizing: border-box; margin-top: 16px; margin-bottom: 16px;&quot;&gt;&lt;font style=&quot;font-size: 10px;&quot;&gt;Cost and accounting&lt;/font&gt;&lt;/p&gt;&lt;ul dir=&quot;auto&quot; style=&quot;box-sizing: border-box; padding-left: 2em; margin-top: 0px; margin-bottom: 0px;&quot;&gt;&lt;li style=&quot;box-sizing: border-box;&quot;&gt;&lt;p dir=&quot;auto&quot; style=&quot;box-sizing: border-box; margin-top: 16px; margin-bottom: 16px;&quot;&gt;&lt;font style=&quot;font-size: 10px;&quot;&gt;What are different ways Tailwind Traders could organize their subscriptions and management groups. Which would be the best to meet their requirements?&lt;/font&gt;&lt;/p&gt;&lt;/li&gt;&lt;li style=&quot;box-sizing: border-box; margin-top: 0.25em;&quot;&gt;&lt;p dir=&quot;auto&quot; style=&quot;box-sizing: border-box; margin-top: 16px; margin-bottom: 16px;&quot;&gt;&lt;font style=&quot;font-size: 10px;&quot;&gt;Design two alternative hierarchies and explain your decision-making process.&lt;/font&gt;&lt;/p&gt;&lt;/li&gt;&lt;/ul&gt;&lt;/li&gt;&lt;/ol&gt;" style="text;html=1;align=left;verticalAlign=middle;resizable=0;points=[];autosize=1;strokeColor=#b85450;fillColor=#f8cecc;fontSize=14;" vertex="1" parent="1">
          <mxGeometry x="25.32000000000002" y="460" width="750" height="110" as="geometry" />
        </mxCell>
        <mxCell id="iz31OjQWNFHDfnBvgaQi-5" value="&lt;ol dir=&quot;auto&quot; style=&quot;box-sizing: border-box; padding-left: 2em; margin-top: 0px; margin-bottom: 16px; color: rgb(36, 41, 47); background-color: rgb(255, 255, 255); font-size: 10px;&quot;&gt;&lt;/ol&gt;&lt;span style=&quot;font-size: 10px; background-color: rgb(255, 255, 255); color: rgb(36, 41, 47);&quot;&gt;Tailwind Traders can arrange their subscriptions and management groups in following ways - At department level, At Management groups level&lt;br&gt;&lt;/span&gt;&lt;span style=&quot;background-color: rgb(255, 255, 255); color: rgb(36, 41, 47); font-size: 10px;&quot;&gt;Choosing at Department level hierarchy is better as it resolves many levels in hierarchy&lt;br&gt;&lt;/span&gt;" style="text;html=1;align=left;verticalAlign=middle;resizable=0;points=[];autosize=1;strokeColor=#82b366;fillColor=#d5e8d4;fontSize=14;" vertex="1" parent="1">
          <mxGeometry x="80.00000000000003" y="570" width="650" height="60" as="geometry" />
        </mxCell>
      </root>
    </mxGraphModel>
  </diagram>
</mxfile>
